<?xml version="1.0" encoding="UTF-8"?><svg id="Layer_1" xmlns="http://www.w3.org/2000/svg" viewBox="0 0 110 33"><path d="m.96,23v-.43l1.46-.26c.66-.13,1.07-.27,1.25-.43.19-.16.29-.49.29-.98v-11.93c0-.51-.1-.85-.29-1.01-.18-.16-.59-.3-1.25-.41l-1.46-.26v-.43h13.66c-.05.22-.09.45-.12.67-.02.22-.02.45-.02.67,0,.59.05,1.14.14,1.66.11.5.19.91.24,1.25h-.48c-.24-.7-.52-1.33-.84-1.87-.3-.56-.71-1-1.22-1.32-.51-.32-1.18-.48-1.99-.48h-4.18v6.72h3.82c.83,0,1.38-.14,1.66-.43.29-.29.5-.77.62-1.44l.22-1.13h.43v6.67h-.43l-.22-1.13c-.13-.67-.34-1.15-.62-1.44-.27-.29-.82-.43-1.66-.43h-3.82v6.02c0,.38.05.7.14.94.1.22.28.38.55.48.27.1.66.14,1.18.14h2.21c.66,0,1.26-.13,1.82-.38.56-.26,1.04-.58,1.44-.96.42-.4.72-.78.91-1.15l.62-1.22h.46c-.21.74-.36,1.49-.46,2.26-.1.75-.15,1.44-.17,2.06H.96Zm15.48,0v-.36l1.13-.26c.29-.06.54-.17.74-.31.22-.14.46-.38.72-.72l2.57-3.36-.02.65-3.14-4.73c-.1-.16-.23-.29-.41-.38-.18-.1-.38-.17-.6-.22l-.74-.17v-.36h5.11v.36l-.96.31c-.21.06-.35.14-.43.24-.08.08-.09.18-.02.29l2.42,3.58h-.82l2.42-3.46c.14-.18.18-.34.12-.5-.06-.16-.18-.25-.34-.26l-.91-.22v-.34h4.18v.34l-1.06.26c-.35.08-.62.18-.79.29-.18.1-.38.3-.6.62l-2.5,3.55.17-.62,3.26,4.66c.1.14.23.27.41.38.18.1.38.17.6.22l.74.17v.36h-5.14v-.36l.96-.31c.22-.08.37-.16.43-.24.08-.1.07-.22-.02-.36l-2.4-3.43.65-.02-2.59,3.36c-.16.18-.23.35-.22.53.02.16.13.26.34.31l.86.17v.36h-4.13Zm18.85,0v-.36l1.01-.26c.24-.06.4-.15.48-.26.1-.11.14-.28.14-.5v-5.38c0-.77-.22-1.35-.65-1.75-.42-.42-1.02-.62-1.82-.62s-1.42.26-1.92.79c-.48.51-.72,1.12-.72,1.82l-.65-2.38h.6c.38-.16.85-.38,1.39-.65.54-.29,1.02-.54,1.42-.74.08-.03.15-.06.22-.07.06-.03.12-.05.17-.05,1.14,0,2.02.29,2.64.86.62.56.94,1.38.94,2.47v5.69c0,.22.04.39.12.5.1.11.26.2.5.26l1.01.26v.36h-4.87Zm-6.74,0v-.36l1.01-.26c.24-.06.4-.15.48-.26.1-.11.14-.28.14-.5l.05-13.15c0-.32-.04-.54-.12-.67-.08-.13-.23-.22-.46-.29l-1.1-.29v-.24c.58-.13,1.14-.26,1.7-.41.58-.16,1.13-.38,1.66-.65l.22.14c-.13.35-.21.72-.24,1.1-.03.37-.05.83-.05,1.39l-.05,13.06c0,.22.04.39.12.5.1.11.26.2.5.26l1.01.26v.36h-4.87Zm12.82,0v-.36l1.01-.26c.42-.11.62-.37.62-.77v-6.58c0-.32-.04-.54-.12-.67-.08-.13-.23-.22-.46-.29l-1.03-.29v-.24c.58-.13,1.14-.26,1.68-.41.54-.16,1.08-.38,1.61-.65l.22.14c-.13.35-.21.72-.24,1.1-.03.37-.05.83-.05,1.39v6.48c0,.21.05.38.14.5.1.13.24.22.43.26l1.01.26v.36h-4.82Zm2.4-13.49c-.35,0-.66-.14-.94-.41s-.41-.58-.41-.94c0-.38.14-.71.41-.98s.58-.41.94-.41c.38,0,.71.14.98.41.27.27.41.6.41.98,0,.35-.14.66-.41.94-.27.27-.6.41-.98.41Zm5.16,13.78l-.22-.05v-14.78c0-.32-.04-.54-.12-.67-.08-.13-.23-.22-.46-.29l-1.1-.29v-.24c.58-.13,1.14-.26,1.7-.41.56-.16,1.1-.38,1.63-.65l.22.14c-.13.35-.21.72-.24,1.1-.03.37-.05.83-.05,1.39v5.4l2.18-1.1c.11-.05.25-.1.41-.17s.32-.1.48-.1c1.15,0,2.1.24,2.83.72.75.48,1.3,1.1,1.66,1.87.37.77.55,1.6.55,2.5s-.18,1.77-.55,2.62-.93,1.54-1.68,2.09c-.75.54-1.71.82-2.88.82-.61,0-1.21-.12-1.8-.36-.59-.26-1.07-.57-1.44-.94-.22.19-.42.4-.6.62-.18.22-.35.48-.53.77Zm4.42-.72c.78,0,1.42-.19,1.92-.58.5-.4.86-.91,1.1-1.54.24-.62.36-1.3.36-2.02,0-.8-.14-1.55-.41-2.26s-.69-1.27-1.25-1.7c-.56-.45-1.28-.67-2.16-.67-.83,0-1.48.22-1.94.65-.45.42-.67.91-.67,1.49v3.38c0,.59.14,1.14.43,1.63.29.5.66.89,1.13,1.18.46.29.96.43,1.49.43Zm6.98.43v-.36l1.01-.26c.42-.11.62-.37.62-.77v-6.58c0-.32-.04-.54-.12-.67-.08-.13-.23-.22-.46-.29l-1.03-.29v-.24c.58-.13,1.14-.26,1.68-.41.54-.16,1.08-.38,1.61-.65l.22.14c-.13.35-.21.72-.24,1.1-.03.37-.05.83-.05,1.39v6.48c0,.21.05.38.14.5s.24.22.43.26l1.01.26v.36h-4.82Zm2.4-13.49c-.35,0-.66-.14-.94-.41s-.41-.58-.41-.94c0-.38.14-.71.41-.98s.58-.41.94-.41c.38,0,.71.14.98.41s.41.6.41.98c0,.35-.14.66-.41.94s-.6.41-.98.41Zm8.59,13.68c-.93,0-1.75-.22-2.47-.67-.7-.45-1.26-1.05-1.66-1.8-.4-.77-.6-1.63-.6-2.59,0-1.12.25-2.09.74-2.9.5-.83,1.13-1.48,1.9-1.94.77-.46,1.56-.7,2.38-.7,1.22,0,2.14.26,2.76.79.64.53.96,1.16.96,1.9,0,.45-.13.78-.38,1.01-.24.21-.5.31-.79.31-.3,0-.58-.1-.84-.29-.24-.19-.36-.46-.36-.79,0-.22.06-.45.17-.67.03-.08.06-.16.1-.24.05-.08.07-.17.07-.26,0-.35-.18-.62-.53-.82-.35-.21-.79-.31-1.32-.31-.5,0-.99.14-1.49.41-.48.27-.88.72-1.2,1.34-.3.62-.46,1.47-.46,2.54,0,1.41.35,2.48,1.06,3.22.72.72,1.58,1.08,2.59,1.08,1.07,0,2.12-.42,3.14-1.27l.29.24c-.59.85-1.26,1.46-2.02,1.85-.74.38-1.42.58-2.04.58Zm5.74-.19v-.36l1.01-.26c.42-.11.62-.37.62-.77v-6.58c0-.32-.04-.54-.12-.67-.08-.13-.23-.22-.46-.29l-1.03-.29v-.24c.58-.13,1.14-.26,1.68-.41.54-.16,1.08-.38,1.61-.65l.22.14c-.13.35-.21.72-.24,1.1-.03.37-.05.83-.05,1.39v6.48c0,.21.05.38.14.5s.24.22.43.26l1.01.26v.36h-4.82Zm2.4-13.49c-.35,0-.66-.14-.94-.41-.27-.27-.41-.58-.41-.94,0-.38.14-.71.41-.98.27-.27.58-.41.94-.41.38,0,.71.14.98.41.27.27.41.6.41.98,0,.35-.14.66-.41.94-.27.27-.6.41-.98.41Zm8.88,13.68c-.99,0-1.87-.22-2.64-.67-.75-.46-1.34-1.09-1.75-1.87-.42-.8-.62-1.69-.62-2.66,0-1.06.21-1.99.62-2.81s1-1.45,1.75-1.9c.77-.46,1.65-.7,2.64-.7s1.89.23,2.64.7c.75.45,1.34,1.06,1.75,1.85.42.78.62,1.67.62,2.66,0,1.06-.21,1.99-.62,2.81-.42.8-1,1.43-1.75,1.9-.75.46-1.63.7-2.64.7Zm.02-.58c.99,0,1.77-.39,2.33-1.18.56-.8.84-1.93.84-3.38s-.28-2.7-.84-3.58c-.56-.88-1.35-1.32-2.38-1.32s-1.77.39-2.33,1.18c-.56.78-.84,1.91-.84,3.38s.28,2.7.84,3.58c.56.88,1.35,1.32,2.38,1.32Zm-1.49-12.65l-.43-.38,2.95-3.74c.16-.21.37-.31.62-.31.22,0,.42.08.58.24.16.16.24.35.24.58,0,.21-.06.37-.17.48-.1.1-.18.18-.26.26l-3.53,2.88Zm15.12,13.03v-.36l1.01-.26c.24-.06.4-.15.48-.26.1-.11.14-.28.14-.5v-5.38c0-.77-.22-1.35-.65-1.75-.42-.42-1.02-.62-1.82-.62s-1.42.26-1.92.79c-.48.51-.72,1.12-.72,1.82l-.65-2.38h.6c.38-.16.85-.38,1.39-.65.54-.29,1.02-.54,1.42-.74.16-.08.29-.12.38-.12,1.14,0,2.02.29,2.64.86.62.56.94,1.38.94,2.47v5.69c0,.22.04.39.12.5.1.11.26.2.5.26l1.01.26v.36h-4.87Zm-6.72,0v-.36l1.01-.26c.24-.06.4-.15.48-.26.1-.11.14-.28.14-.5v-6.55c0-.32-.04-.54-.12-.67s-.23-.22-.46-.29l-1.03-.29v-.24c.37-.08.73-.17,1.08-.26.37-.1.72-.21,1.06-.34.35-.13.69-.28,1.01-.46l.22.14c-.08.21-.15.44-.22.7-.05.24-.07.47-.07.7v.24l.14.36v6.96c0,.22.04.39.12.5.1.11.26.2.5.26l1.01.26v.36h-4.87Z"/><path d="m104.56,25v-.36l1.01-.26c.24-.06.4-.15.48-.26.1-.11.14-.28.14-.5v-5.38c0-.77-.22-1.35-.65-1.75-.42-.42-1.02-.62-1.82-.62s-1.42.26-1.92.79c-.48.51-.72,1.12-.72,1.82l-.65-2.38h.6c.38-.16.85-.38,1.39-.65.54-.29,1.02-.54,1.42-.74.16-.08.29-.12.38-.12,1.14,0,2.02.29,2.64.86.62.56.94,1.38.94,2.47v5.69c0,.22.04.39.12.5.1.11.26.2.5.26l1.01.26v.36h-4.87Zm-6.72,0v-.36l1.01-.26c.24-.06.4-.15.48-.26.1-.11.14-.28.14-.5v-6.55c0-.32-.04-.54-.12-.67-.08-.13-.23-.22-.46-.29l-1.03-.29v-.24c.37-.08.73-.17,1.08-.26.37-.1.72-.21,1.06-.34.35-.13.69-.28,1.01-.46l.22.14c-.08.21-.15.44-.22.7-.05.24-.07.47-.07.7v.24l.14.36v6.96c0,.22.04.39.12.5.1.11.26.2.5.26l1.01.26v.36h-4.87Z"/><path d="m13.24,26v-.36l1.13-.26c.29-.06.54-.17.74-.31.22-.14.46-.38.72-.72l2.57-3.36-.02.65-3.14-4.73c-.1-.16-.23-.29-.41-.38-.18-.1-.38-.17-.6-.22l-.74-.17v-.36h5.11v.36l-.96.31c-.21.06-.35.14-.43.24-.08.08-.09.18-.02.29l2.42,3.58h-.82l2.42-3.46c.14-.18.18-.34.12-.5-.06-.16-.18-.25-.34-.26l-.91-.22v-.34h4.18v.34l-1.06.26c-.35.08-.62.18-.79.29-.18.1-.38.3-.6.62l-2.5,3.55.17-.62,3.26,4.66c.1.14.23.27.41.38.18.1.38.17.6.22l.74.17v.36h-5.14v-.36l.96-.31c.22-.08.37-.16.43-.24.08-.1.07-.22-.02-.36l-2.4-3.43.65-.02-2.59,3.36c-.16.18-.23.35-.22.53.02.16.13.26.34.31l.86.17v.36h-4.13Z"/><path d="m37.58,20v-.36l1.01-.26c.24-.06.4-.15.48-.26.1-.11.14-.28.14-.5v-5.38c0-.77-.22-1.35-.65-1.75-.42-.42-1.02-.62-1.82-.62s-1.42.26-1.92.79c-.48.51-.72,1.12-.72,1.82l-.65-2.38h.6c.38-.16.85-.38,1.39-.65.54-.29,1.02-.54,1.42-.74.08-.03.15-.06.22-.07.06-.03.12-.05.17-.05,1.14,0,2.02.29,2.64.86.62.56.94,1.38.94,2.47v5.69c0,.22.04.39.12.5.1.11.26.2.5.26l1.01.26v.36h-4.87Zm-6.74,0v-.36l1.01-.26c.24-.06.4-.15.48-.26.1-.11.14-.28.14-.5l.05-13.15c0-.32-.04-.54-.12-.67-.08-.13-.23-.22-.46-.29l-1.1-.29v-.24c.58-.13,1.14-.26,1.7-.41.58-.16,1.13-.38,1.66-.65l.22.14c-.13.35-.21.72-.24,1.1-.03.37-.05.83-.05,1.39l-.05,13.06c0,.22.04.39.12.5.1.11.26.2.5.26l1.01.26v.36h-4.87Z"/><path d="m51.5,26.29l-.22-.05v-14.78c0-.32-.04-.54-.12-.67-.08-.13-.23-.22-.46-.29l-1.1-.29v-.24c.58-.13,1.14-.26,1.7-.41.56-.16,1.1-.38,1.63-.65l.22.14c-.13.35-.21.72-.24,1.1-.03.37-.05.83-.05,1.39v5.4l2.18-1.1c.11-.05.25-.1.41-.17s.32-.1.48-.1c1.15,0,2.1.24,2.83.72.75.48,1.3,1.1,1.66,1.87.37.77.55,1.6.55,2.5s-.18,1.77-.55,2.62-.93,1.54-1.68,2.09c-.75.54-1.71.82-2.88.82-.61,0-1.21-.12-1.8-.36-.59-.26-1.07-.57-1.44-.94-.22.19-.42.4-.6.62-.18.22-.35.48-.53.77Zm4.42-.72c.78,0,1.42-.19,1.92-.58.5-.4.86-.91,1.1-1.54.24-.62.36-1.3.36-2.02,0-.8-.14-1.55-.41-2.26s-.69-1.27-1.25-1.7c-.56-.45-1.28-.67-2.16-.67-.83,0-1.48.22-1.94.65-.45.42-.67.91-.67,1.49v3.38c0,.59.14,1.14.43,1.63.29.5.66.89,1.13,1.18s.96.43,1.49.43Z"/><path d="m51.5,19.29l-.22-.05V4.46c0-.32-.04-.54-.12-.67-.08-.13-.23-.22-.46-.29l-1.1-.29v-.24c.58-.13,1.14-.26,1.7-.41.56-.16,1.1-.38,1.63-.65l.22.14c-.13.35-.21.72-.24,1.1-.03.37-.05.83-.05,1.39v5.4l2.18-1.1c.11-.05.25-.1.41-.17s.32-.1.48-.1c1.15,0,2.1.24,2.83.72.75.48,1.3,1.1,1.66,1.87.37.77.55,1.6.55,2.5s-.18,1.77-.55,2.62c-.37.85-.93,1.54-1.68,2.09-.75.54-1.71.82-2.88.82-.61,0-1.21-.12-1.8-.36-.59-.26-1.07-.57-1.44-.94-.22.19-.42.4-.6.62-.18.22-.35.48-.53.77Zm4.42-.72c.78,0,1.42-.19,1.92-.58.5-.4.86-.91,1.1-1.54.24-.62.36-1.3.36-2.02,0-.8-.14-1.55-.41-2.26-.27-.7-.69-1.27-1.25-1.7-.56-.45-1.28-.67-2.16-.67-.83,0-1.48.22-1.94.65-.45.42-.67.91-.67,1.49v3.38c0,.59.14,1.14.43,1.63.29.5.66.89,1.13,1.18s.96.43,1.49.43Z"/><path d="m72.84,26v-.36l1.01-.26c.42-.11.62-.37.62-.77v-6.58c0-.32-.04-.54-.12-.67-.08-.13-.23-.22-.46-.29l-1.03-.29v-.24c.58-.13,1.14-.26,1.68-.41.54-.16,1.08-.38,1.61-.65l.22.14c-.13.35-.21.72-.24,1.1-.03.37-.05.83-.05,1.39v6.48c0,.21.05.38.14.5s.24.22.43.26l1.01.26v.36h-4.82Zm2.4-13.49c-.35,0-.66-.14-.94-.41-.27-.27-.41-.58-.41-.94,0-.38.14-.71.41-.98.27-.27.58-.41.94-.41.38,0,.71.14.98.41.27.27.41.6.41.98,0,.35-.14.66-.41.94-.27.27-.6.41-.98.41Z"/><path d="m90.1,23.19c-.99,0-1.87-.22-2.64-.67-.75-.46-1.34-1.09-1.75-1.87-.42-.8-.62-1.69-.62-2.66,0-1.06.21-1.99.62-2.81s1-1.45,1.75-1.9c.77-.46,1.65-.7,2.64-.7s1.89.23,2.64.7c.75.45,1.34,1.06,1.75,1.85.42.78.62,1.67.62,2.66,0,1.06-.21,1.99-.62,2.81-.42.8-1,1.43-1.75,1.9-.75.46-1.63.7-2.64.7Zm.02-.58c.99,0,1.77-.39,2.33-1.18.56-.8.84-1.93.84-3.38s-.28-2.7-.84-3.58c-.56-.88-1.35-1.32-2.38-1.32s-1.77.39-2.33,1.18c-.56.78-.84,1.91-.84,3.38s.28,2.7.84,3.58c.56.88,1.35,1.32,2.38,1.32Zm-1.49-12.65l-.43-.38,2.95-3.74c.16-.21.37-.31.62-.31.22,0,.42.08.58.24.16.16.24.35.24.58,0,.21-.06.37-.17.48-.1.1-.18.18-.26.26l-3.53,2.88Z"/></svg>