<?xml version="1.0" encoding="UTF-8"?><svg id="Layer_1" xmlns="http://www.w3.org/2000/svg" viewBox="0 0 111 40"><path d="m13.94,30.22l-5.88-14.14-.55,11.78c-.02.5.07.82.26.98s.62.3,1.27.43l1.49.29v.43H3.84v-.43l1.46-.29c.45-.1.78-.18.98-.26.21-.1.34-.22.41-.38.08-.18.13-.43.14-.77l.5-11.76c.03-.51-.06-.88-.26-1.1-.21-.22-.63-.4-1.27-.53l-1.01-.19v-.43h4.61l5.35,12.5,5.23-12.5h4.9v.43l-1.44.24c-.64.11-1.06.27-1.27.48-.19.21-.28.58-.26,1.13l.31,11.76c.02.34.06.59.12.77.06.18.21.31.43.41.22.08.55.16.98.24l1.46.26v.43h-7.68v-.43l1.68-.31c.32-.06.53-.15.62-.26.1-.11.14-.3.14-.55l-.24-11.9-5.64,13.68h-.17Zm15.92-.05c-.48,0-.94-.15-1.37-.46-.43-.3-.78-.7-1.06-1.18-.27-.5-.41-1-.41-1.51,0-.27.02-.46.07-.58.06-.11.15-.19.26-.24l4.58-1.66c.38-.14.65-.3.79-.48.14-.19.22-.45.22-.77v-.43c0-.74-.18-1.38-.53-1.92-.35-.54-.9-.82-1.63-.82-.48,0-.88.11-1.2.34-.3.22-.46.53-.46.91,0,.1.02.19.07.29.05.08.1.16.17.24.1.13.18.26.24.41.06.14.1.3.1.46,0,.3-.11.55-.34.74-.21.18-.47.26-.79.26-.35,0-.63-.1-.84-.31-.19-.22-.29-.54-.29-.94,0-.54.18-1.04.53-1.49.37-.45.84-.8,1.42-1.06.58-.27,1.17-.41,1.78-.41.77,0,1.4.15,1.9.46.51.3.89.7,1.13,1.2.26.5.38,1.04.38,1.63v5.04c0,.34.03.62.1.86.08.22.28.34.6.34.35,0,.73-.08,1.13-.24v.36c-.3.19-.69.4-1.15.62-.45.21-.82.31-1.1.31-.35,0-.62-.09-.79-.26-.16-.19-.26-.42-.31-.7-.05-.29-.07-.58-.07-.86v-.29l.24.34c-.32.26-.67.52-1.06.79s-.78.5-1.18.7c-.38.19-.76.29-1.13.29Zm.67-1.15c.32,0,.65-.08.98-.24.35-.16.7-.37,1.06-.62.27-.22.41-.54.41-.94v-2.21s-.02-.09-.07-.12c-.03-.03-.07-.03-.12,0l-3.77,1.42c-.1.03-.17.11-.22.24-.03.11-.05.3-.05.55,0,.3.1.61.29.91.19.29.42.53.7.72.29.19.55.29.79.29Zm13.8.98v-.36l1.01-.26c.24-.06.4-.15.48-.26.1-.11.14-.28.14-.5v-5.38c0-.77-.22-1.35-.65-1.75-.42-.42-1.02-.62-1.82-.62s-1.42.26-1.92.79c-.48.51-.72,1.12-.72,1.82l-.65-2.38h.6c.38-.16.85-.38,1.39-.65.54-.29,1.02-.54,1.42-.74.16-.08.29-.12.38-.12,1.14,0,2.02.29,2.64.86.62.56.94,1.38.94,2.47v5.69c0,.22.04.39.12.5.1.11.26.2.5.26l1.01.26v.36h-4.87Zm-6.72,0v-.36l1.01-.26c.24-.06.4-.15.48-.26.1-.11.14-.28.14-.5v-6.55c0-.32-.04-.54-.12-.67-.08-.13-.23-.22-.46-.29l-1.03-.29v-.24c.37-.08.73-.17,1.08-.26.37-.1.72-.21,1.06-.34.35-.13.69-.28,1.01-.46l.22.14c-.08.21-.15.44-.22.7-.05.24-.07.47-.07.7v.24l.14.36v6.96c0,.22.04.39.12.5.1.11.26.2.5.26l1.01.26v.36h-4.87Zm12.8,0v-.36l1.01-.26c.42-.11.62-.37.62-.77v-6.58c0-.32-.04-.54-.12-.67-.08-.13-.23-.22-.46-.29l-1.03-.29v-.24c.58-.13,1.14-.26,1.68-.41.54-.16,1.08-.38,1.61-.65l.22.14c-.13.35-.21.72-.24,1.1-.03.37-.05.83-.05,1.39v6.48c0,.21.05.38.14.5s.24.22.43.26l1.01.26v.36h-4.82Zm2.4-13.49c-.35,0-.66-.14-.94-.41-.27-.27-.41-.58-.41-.94,0-.38.14-.71.41-.98.27-.27.58-.41.94-.41.38,0,.71.14.98.41s.41.6.41.98c0,.35-.14.66-.41.94-.27.27-.6.41-.98.41Zm3.86,13.49v-.36l1.01-.26c.24-.06.4-.15.48-.26.1-.11.14-.28.14-.5v-8.11h-1.61v-.72h1.61v-.67c0-.72.09-1.44.26-2.16.19-.74.5-1.41.91-2.02.42-.61.96-1.09,1.63-1.44.67-.37,1.49-.55,2.45-.55.72,0,1.32.16,1.8.48.48.32.72.72.72,1.2,0,.26-.09.5-.26.74-.18.22-.45.34-.82.34-.32,0-.58-.1-.77-.31-.18-.21-.27-.44-.29-.7v-.17s.03-.1.05-.14c.02-.03.02-.06.02-.1.02-.05.02-.09.02-.12,0-.16-.06-.3-.17-.41-.11-.13-.28-.19-.5-.19-.69,0-1.26.16-1.73.48-.45.32-.8.74-1.06,1.27-.24.51-.42,1.08-.53,1.7-.1.61-.14,1.22-.14,1.82v.94h5.83l.6-.29.22.14c-.13.35-.21.72-.24,1.1-.03.37-.05.83-.05,1.39v6.48c0,.21.05.38.14.5s.24.22.43.26l1.01.26v.36h-4.82v-.36l1.01-.26c.42-.11.62-.37.62-.77v-6.89c0-.32-.04-.54-.12-.67s-.23-.22-.46-.29l-.94-.26h-3.24v8.11c0,.22.04.39.12.5.1.11.26.2.5.26l1.15.26v.36h-5.02Zm17.65.19c-.93,0-1.75-.23-2.47-.7-.72-.46-1.29-1.08-1.7-1.85-.4-.78-.6-1.66-.6-2.62,0-1.07.22-2.02.65-2.83.43-.82,1.02-1.46,1.75-1.92.75-.46,1.59-.7,2.52-.7.75,0,1.4.18,1.94.55.56.35.99.84,1.3,1.46.32.61.48,1.3.48,2.06,0,.1-.03.18-.1.26-.05.08-.14.12-.29.12h-6.94v-.55l4.92-.14c.3,0,.46-.14.46-.43,0-.75-.17-1.39-.5-1.92-.32-.53-.83-.79-1.54-.79-.88,0-1.59.4-2.14,1.2-.54.78-.82,1.82-.82,3.1,0,.93.17,1.71.5,2.35.34.64.78,1.13,1.34,1.46.56.32,1.18.48,1.85.48,1.01,0,2.02-.42,3.05-1.27l.29.24c-.59.85-1.25,1.46-1.97,1.85-.7.38-1.37.58-1.99.58Zm9.29,0c-.69,0-1.34-.11-1.94-.34-.59-.22-1.05-.43-1.37-.62.03-.46.04-.93.02-1.39,0-.46-.04-.94-.12-1.44h.65c.1.64.26,1.21.5,1.7.26.48.59.86,1.01,1.13.43.27.96.41,1.58.41.46,0,.87-.17,1.22-.5.37-.35.55-.77.55-1.25,0-.42-.07-.76-.22-1.03-.13-.27-.38-.52-.74-.74-.37-.22-.9-.46-1.61-.72-.85-.34-1.5-.71-1.97-1.13-.46-.43-.7-1.04-.7-1.82,0-.5.14-.96.41-1.39.29-.43.69-.78,1.2-1.06.51-.27,1.1-.41,1.78-.41.46,0,.84.05,1.13.14.29.1.59.22.91.36h.55c-.02.54-.02,1.02-.02,1.44.02.4.07.86.17,1.39h-.53c-.16-.88-.44-1.56-.84-2.04-.4-.48-.9-.72-1.51-.72-.53,0-.96.15-1.3.46-.34.3-.5.69-.5,1.15,0,.38.06.7.17.96.13.24.36.46.7.67.34.19.84.42,1.51.67,1.06.4,1.78.82,2.18,1.27.42.43.62,1.02.62,1.78,0,.51-.13,1.01-.38,1.49-.26.46-.64.85-1.15,1.15-.51.29-1.17.43-1.97.43Zm8.6,0c-1.34,0-2.02-.88-2.02-2.64v-7.1h-1.63v-.48c.96-.22,1.63-.58,2.02-1.08.4-.51.63-1.25.7-2.21h.53v3.1h3.24l-.24.67h-3v6.89c0,.62.1,1.06.31,1.32s.49.38.84.38c.27,0,.56-.06.86-.17.32-.11.66-.26,1.01-.46l.29.38c-.54.45-1.07.79-1.58,1.03-.51.24-.95.36-1.32.36Zm9.37,0c-.99,0-1.87-.22-2.64-.67-.75-.46-1.34-1.09-1.75-1.87-.42-.8-.62-1.69-.62-2.66,0-1.06.21-1.99.62-2.81s1-1.45,1.75-1.9c.77-.46,1.65-.7,2.64-.7s1.89.23,2.64.7c.75.45,1.34,1.06,1.75,1.85s.62,1.67.62,2.66c0,1.06-.21,1.99-.62,2.81-.42.8-1,1.43-1.75,1.9-.75.46-1.63.7-2.64.7Zm.02-.58c.99,0,1.77-.39,2.33-1.18.56-.8.84-1.93.84-3.38s-.28-2.7-.84-3.58c-.56-.88-1.35-1.32-2.38-1.32s-1.77.39-2.33,1.18-.84,1.91-.84,3.38.28,2.7.84,3.58c.56.88,1.35,1.32,2.38,1.32Z"/><path d="m47.84,33v-.36l1.01-.26c.42-.11.62-.37.62-.77v-6.58c0-.32-.04-.54-.12-.67-.08-.13-.23-.22-.46-.29l-1.03-.29v-.24c.58-.13,1.14-.26,1.68-.41.54-.16,1.08-.38,1.61-.65l.22.14c-.13.35-.21.72-.24,1.1-.03.37-.05.83-.05,1.39v6.48c0,.21.05.38.14.5.1.13.24.22.43.26l1.01.26v.36h-4.82Zm2.4-13.49c-.35,0-.66-.14-.94-.41s-.41-.58-.41-.94c0-.38.14-.71.41-.98s.58-.41.94-.41c.38,0,.71.14.98.41s.41.6.41.98c0,.35-.14.66-.41.94s-.6.41-.98.41Z"/><path d="m72.86,29.19c-.93,0-1.75-.23-2.47-.7-.72-.46-1.29-1.08-1.7-1.85-.4-.78-.6-1.66-.6-2.62,0-1.07.22-2.02.65-2.83.43-.82,1.02-1.46,1.75-1.92.75-.46,1.59-.7,2.52-.7.75,0,1.4.18,1.94.55.56.35.99.84,1.3,1.46.32.61.48,1.3.48,2.06,0,.1-.03.18-.1.26-.05.08-.14.12-.29.12h-6.94v-.55l4.92-.14c.3,0,.46-.14.46-.43,0-.75-.17-1.39-.5-1.92-.32-.53-.83-.79-1.54-.79-.88,0-1.59.4-2.14,1.2-.54.78-.82,1.82-.82,3.1,0,.93.17,1.71.5,2.35.34.64.78,1.13,1.34,1.46.56.32,1.18.48,1.85.48,1.01,0,2.02-.42,3.05-1.27l.29.24c-.59.85-1.25,1.46-1.97,1.85-.7.38-1.37.58-1.99.58Z"/><path d="m85.37,33.19c-.69,0-1.34-.11-1.94-.34-.59-.22-1.05-.43-1.37-.62.03-.46.04-.93.02-1.39,0-.46-.04-.94-.12-1.44h.65c.1.64.26,1.21.5,1.7.26.48.59.86,1.01,1.13.43.27.96.41,1.58.41.46,0,.87-.17,1.22-.5.37-.35.55-.77.55-1.25,0-.42-.07-.76-.22-1.03-.13-.27-.38-.52-.74-.74-.37-.22-.9-.46-1.61-.72-.85-.34-1.5-.71-1.97-1.13-.46-.43-.7-1.04-.7-1.82,0-.5.14-.96.41-1.39.29-.43.69-.78,1.2-1.06.51-.27,1.1-.41,1.78-.41.46,0,.84.05,1.13.14.29.1.59.22.91.36h.55c-.02.54-.02,1.02-.02,1.44.02.4.07.86.17,1.39h-.53c-.16-.88-.44-1.56-.84-2.04-.4-.48-.9-.72-1.51-.72-.53,0-.96.15-1.3.46-.34.3-.5.69-.5,1.15,0,.38.06.7.17.96.13.24.36.46.7.67.34.19.84.42,1.51.67,1.06.4,1.78.82,2.18,1.27.42.43.62,1.02.62,1.78,0,.51-.13,1.01-.38,1.49-.26.46-.64.85-1.15,1.15-.51.29-1.17.43-1.97.43Z"/><path d="m52.84,23v-.36l1.01-.26c.42-.11.62-.37.62-.77v-6.58c0-.32-.04-.54-.12-.67-.08-.13-.23-.22-.46-.29l-1.03-.29v-.24c.58-.13,1.14-.26,1.68-.41.54-.16,1.08-.38,1.61-.65l.22.14c-.13.35-.21.72-.24,1.1-.03.37-.05.83-.05,1.39v6.48c0,.21.05.38.14.5s.24.22.43.26l1.01.26v.36h-4.82Zm2.4-13.49c-.35,0-.66-.14-.94-.41s-.41-.58-.41-.94c0-.38.14-.71.41-.98s.58-.41.94-.41c.38,0,.71.14.98.41s.41.6.41.98c0,.35-.14.66-.41.94s-.6.41-.98.41Z"/><path d="m10.94,28.22l-5.88-14.14-.55,11.78c-.02.5.07.82.26.98s.62.3,1.27.43l1.49.29v.43H.84v-.43l1.46-.29c.45-.1.78-.18.98-.26.21-.1.34-.22.41-.38.08-.18.13-.43.14-.77l.5-11.76c.03-.51-.06-.88-.26-1.1-.21-.22-.63-.4-1.27-.53l-1.01-.19v-.43h4.61l5.35,12.5,5.23-12.5h4.9v.43l-1.44.24c-.64.11-1.06.27-1.27.48-.19.21-.28.58-.26,1.13l.31,11.76c.02.34.06.59.12.77.06.18.21.31.43.41.22.08.55.16.98.24l1.46.26v.43h-7.68v-.43l1.68-.31c.32-.06.53-.15.62-.26.1-.11.14-.3.14-.55l-.24-11.9-5.64,13.68h-.17Z"/><path d="m31.27,28.17c-.48,0-.94-.15-1.37-.46-.43-.3-.78-.7-1.06-1.18-.27-.5-.41-1-.41-1.51,0-.27.02-.46.07-.58.06-.11.15-.19.26-.24l4.58-1.66c.38-.14.65-.3.79-.48.14-.19.22-.45.22-.77v-.43c0-.74-.18-1.38-.53-1.92-.35-.54-.9-.82-1.63-.82-.48,0-.88.11-1.2.34-.3.22-.46.53-.46.91,0,.1.02.19.07.29.05.08.1.16.17.24.1.13.18.26.24.41.06.14.1.3.1.46,0,.3-.11.55-.34.74-.21.18-.47.26-.79.26-.35,0-.63-.1-.84-.31-.19-.22-.29-.54-.29-.94,0-.54.18-1.04.53-1.49.37-.45.84-.8,1.42-1.06.58-.27,1.17-.41,1.78-.41.77,0,1.4.15,1.9.46.51.3.89.7,1.13,1.2.26.5.38,1.04.38,1.63v5.04c0,.34.03.62.1.86.08.22.28.34.6.34.35,0,.73-.08,1.13-.24v.36c-.3.19-.69.4-1.15.62-.45.21-.82.31-1.1.31-.35,0-.62-.09-.79-.26-.16-.19-.26-.42-.31-.7-.05-.29-.07-.58-.07-.86v-.29l.24.34c-.32.26-.67.52-1.06.79s-.78.5-1.18.7c-.38.19-.76.29-1.13.29Zm.67-1.15c.32,0,.65-.08.98-.24.35-.16.7-.37,1.06-.62.27-.22.41-.54.41-.94v-2.21s-.02-.09-.07-.12c-.03-.03-.07-.03-.12,0l-3.77,1.42c-.1.03-.17.11-.22.24-.03.11-.05.3-.05.55,0,.3.1.61.29.91.19.29.42.53.7.72.29.19.55.29.79.29Z"/><path d="m104.1,28.19c-.99,0-1.87-.22-2.64-.67-.75-.46-1.34-1.09-1.75-1.87-.42-.8-.62-1.69-.62-2.66,0-1.06.21-1.99.62-2.81s1-1.45,1.75-1.9c.77-.46,1.65-.7,2.64-.7s1.89.23,2.64.7c.75.45,1.34,1.06,1.75,1.85s.62,1.67.62,2.66c0,1.06-.21,1.99-.62,2.81-.42.8-1,1.43-1.75,1.9-.75.46-1.63.7-2.64.7Zm.02-.58c.99,0,1.77-.39,2.33-1.18.56-.8.84-1.93.84-3.38s-.28-2.7-.84-3.58c-.56-.88-1.35-1.32-2.38-1.32s-1.77.39-2.33,1.18c-.56.78-.84,1.91-.84,3.38s.28,2.7.84,3.58c.56.88,1.35,1.32,2.38,1.32Z"/></svg>